<mxfile host="65bd71144e">
    <diagram id="pvzXxRe4X0o2TxZF-QTk" name="Page-1">
        <mxGraphModel dx="788" dy="473" grid="1" gridSize="10" guides="1" tooltips="1" connect="1" arrows="1" fold="1" page="1" pageScale="1" pageWidth="850" pageHeight="1100" math="0" shadow="0">
            <root>
                <mxCell id="0"/>
                <mxCell id="1" parent="0"/>
                <mxCell id="R3rMBgy54N82EVj8vwxI-1" value="" style="rounded=0;whiteSpace=wrap;html=1;dashed=1;" parent="1" vertex="1">
                    <mxGeometry x="80" y="340" width="600" height="220" as="geometry"/>
                </mxCell>
                <mxCell id="R3rMBgy54N82EVj8vwxI-2" value="NPM Registry" style="rounded=0;whiteSpace=wrap;html=1;" parent="1" vertex="1">
                    <mxGeometry x="350" y="600" width="120" height="60" as="geometry"/>
                </mxCell>
                <mxCell id="4" style="edgeStyle=none;html=1;exitX=0.25;exitY=1;exitDx=0;exitDy=0;entryX=0.583;entryY=-0.006;entryDx=0;entryDy=0;entryPerimeter=0;" edge="1" parent="1" source="R3rMBgy54N82EVj8vwxI-3" target="2">
                    <mxGeometry relative="1" as="geometry"/>
                </mxCell>
                <mxCell id="R3rMBgy54N82EVj8vwxI-3" value="ncbi-design-system&lt;br&gt;package" style="rounded=0;whiteSpace=wrap;html=1;" parent="1" vertex="1">
                    <mxGeometry x="120" y="400" width="120" height="60" as="geometry"/>
                </mxCell>
                <mxCell id="R3rMBgy54N82EVj8vwxI-4" value="uswds,&amp;nbsp;&lt;br&gt;uswds-compile" style="endArrow=classic;html=1;rounded=0;exitX=0.5;exitY=0;exitDx=0;exitDy=0;entryX=0.75;entryY=1;entryDx=0;entryDy=0;" parent="1" source="R3rMBgy54N82EVj8vwxI-2" edge="1" target="R3rMBgy54N82EVj8vwxI-6">
                    <mxGeometry width="50" height="50" relative="1" as="geometry">
                        <mxPoint x="593" y="470" as="sourcePoint"/>
                        <mxPoint x="373" y="460" as="targetPoint"/>
                    </mxGeometry>
                </mxCell>
                <mxCell id="R3rMBgy54N82EVj8vwxI-5" value="GITHUB" style="text;html=1;strokeColor=none;fillColor=none;align=center;verticalAlign=middle;whiteSpace=wrap;rounded=0;dashed=1;fontStyle=1" parent="1" vertex="1">
                    <mxGeometry x="230" y="352" width="110" height="29" as="geometry"/>
                </mxCell>
                <mxCell id="R3rMBgy54N82EVj8vwxI-6" value="Github Action" style="shape=parallelogram;perimeter=parallelogramPerimeter;whiteSpace=wrap;html=1;fixedSize=1;" parent="1" vertex="1">
                    <mxGeometry x="318" y="400" width="120" height="60" as="geometry"/>
                </mxCell>
                <mxCell id="R3rMBgy54N82EVj8vwxI-7" value="" style="endArrow=classic;html=1;rounded=0;entryX=0;entryY=0.5;entryDx=0;entryDy=0;exitX=1;exitY=0.5;exitDx=0;exitDy=0;" parent="1" source="R3rMBgy54N82EVj8vwxI-3" target="R3rMBgy54N82EVj8vwxI-6" edge="1">
                    <mxGeometry width="50" height="50" relative="1" as="geometry">
                        <mxPoint x="240" y="450" as="sourcePoint"/>
                        <mxPoint x="290" y="400" as="targetPoint"/>
                    </mxGeometry>
                </mxCell>
                <mxCell id="R3rMBgy54N82EVj8vwxI-10" value="" style="endArrow=classic;html=1;rounded=0;entryX=0;entryY=0.5;entryDx=0;entryDy=0;exitX=1;exitY=0.5;exitDx=0;exitDy=0;" parent="1" source="R3rMBgy54N82EVj8vwxI-6" edge="1">
                    <mxGeometry width="50" height="50" relative="1" as="geometry">
                        <mxPoint x="434" y="429.5" as="sourcePoint"/>
                        <mxPoint x="522" y="429.5" as="targetPoint"/>
                    </mxGeometry>
                </mxCell>
                <mxCell id="R3rMBgy54N82EVj8vwxI-11" value="nwds-assets&lt;br&gt;(artifacts)" style="rounded=0;whiteSpace=wrap;html=1;" parent="1" vertex="1">
                    <mxGeometry x="520" y="400" width="120" height="60" as="geometry"/>
                </mxCell>
                <mxCell id="6" style="edgeStyle=none;html=1;exitX=0.5;exitY=1;exitDx=0;exitDy=0;entryX=0;entryY=0.5;entryDx=0;entryDy=0;" edge="1" parent="1" source="2" target="5">
                    <mxGeometry relative="1" as="geometry">
                        <Array as="points">
                            <mxPoint x="140" y="740"/>
                        </Array>
                    </mxGeometry>
                </mxCell>
                <mxCell id="2" value="Local machine" style="rounded=0;whiteSpace=wrap;html=1;" vertex="1" parent="1">
                    <mxGeometry x="80" y="610" width="120" height="60" as="geometry"/>
                </mxCell>
                <mxCell id="7" style="edgeStyle=none;html=1;exitX=1;exitY=0.5;exitDx=0;exitDy=0;entryX=0.5;entryY=1;entryDx=0;entryDy=0;" edge="1" parent="1" source="5" target="R3rMBgy54N82EVj8vwxI-2">
                    <mxGeometry relative="1" as="geometry">
                        <Array as="points">
                            <mxPoint x="410" y="740"/>
                        </Array>
                    </mxGeometry>
                </mxCell>
                <mxCell id="5" value="Publish&lt;br&gt;ncbi-design-system&lt;br&gt;package" style="rhombus;whiteSpace=wrap;html=1;" vertex="1" parent="1">
                    <mxGeometry x="190" y="680" width="160" height="120" as="geometry"/>
                </mxCell>
            </root>
        </mxGraphModel>
    </diagram>
</mxfile>